<?xml version="1.0" encoding="UTF-8" standalone="no"?>
<!-- Created with Inkscape (http://www.inkscape.org/) -->

<svg
   width="24.937496mm"
   height="28.230843mm"
   viewBox="0 0 24.937496 28.230843"
   version="1.1"
   id="svg1"
   xml:space="preserve"
   inkscape:export-filename="save_icon.svg"
   inkscape:export-xdpi="96"
   inkscape:export-ydpi="96"
   inkscape:version="1.3.2 (091e20e, 2023-11-25, custom)"
   sodipodi:docname="save_icon.svg"
   xmlns:inkscape="http://www.inkscape.org/namespaces/inkscape"
   xmlns:sodipodi="http://sodipodi.sourceforge.net/DTD/sodipodi-0.dtd"
   xmlns="http://www.w3.org/2000/svg"
   xmlns:svg="http://www.w3.org/2000/svg"><sodipodi:namedview
     id="namedview1"
     pagecolor="#ffffff"
     bordercolor="#111111"
     borderopacity="1"
     inkscape:showpageshadow="0"
     inkscape:pageopacity="0"
     inkscape:pagecheckerboard="1"
     inkscape:deskcolor="#d1d1d1"
     inkscape:document-units="mm"
     inkscape:zoom="4.3389453"
     inkscape:cx="19.129073"
     inkscape:cy="54.967275"
     inkscape:window-width="1920"
     inkscape:window-height="1057"
     inkscape:window-x="1592"
     inkscape:window-y="-8"
     inkscape:window-maximized="1"
     inkscape:current-layer="layer1" /><defs
     id="defs1"><inkscape:path-effect
       effect="fillet_chamfer"
       id="path-effect5"
       is_visible="true"
       lpeversion="1"
       nodesatellites_param="F,0,0,1,0,0,0,1 @ F,0,0,1,0,0,0,1 @ F,0,0,1,0,1.6879468,0,1 @ F,0,0,1,0,1.3798685,0,1"
       radius="0"
       unit="px"
       method="auto"
       mode="F"
       chamfer_steps="1"
       flexible="false"
       use_knot_distance="true"
       apply_no_radius="true"
       apply_with_radius="true"
       only_selected="false"
       hide_knots="false" /><inkscape:path-effect
       effect="fillet_chamfer"
       id="path-effect3"
       is_visible="true"
       lpeversion="1"
       nodesatellites_param="F,0,0,1,0,1.5207438,0,1 @ F,0,0,1,0,0,0,1 @ F,0,0,1,0,0,0,1 @ F,0,0,1,0,1.4498778,0,1"
       radius="0"
       unit="px"
       method="auto"
       mode="F"
       chamfer_steps="1"
       flexible="false"
       use_knot_distance="true"
       apply_no_radius="true"
       apply_with_radius="true"
       only_selected="false"
       hide_knots="false" /><inkscape:path-effect
       effect="fillet_chamfer"
       id="path-effect2"
       is_visible="true"
       lpeversion="1"
       nodesatellites_param="F,0,0,1,0,0,0,1 @ F,0,0,1,0,0,0,1 @ F,0,0,1,0,1.6879468,0,1 @ F,0,0,1,0,1.3798685,0,1"
       radius="0"
       unit="px"
       method="auto"
       mode="F"
       chamfer_steps="1"
       flexible="false"
       use_knot_distance="true"
       apply_no_radius="true"
       apply_with_radius="true"
       only_selected="false"
       hide_knots="false" /></defs><g
     inkscape:label="Layer 1"
     inkscape:groupmode="layer"
     id="layer1"
     transform="translate(-72.222465,-154.76161)"><path
       id="path1"
       style="color:#000000;fill:#000000;stroke-linecap:round;stroke-linejoin:round;-inkscape-stroke:none"
       d="m 72.65448,154.76161 a 0.43254325,0.43254325 0 0 0 -0.432015,0.4315 v 27.36732 a 0.43254325,0.43254325 0 0 0 0.432015,0.43202 h 24.071916 a 0.43254325,0.43254325 0 0 0 0.433565,-0.43202 V 158.4787 a 0.43254325,0.43254325 0 0 0 -0.130741,-0.31058 l -3.349667,-3.28352 a 0.43254325,0.43254325 0 0 0 -0.302824,-0.12299 z m 0.433565,0.86558 h 2.18333 v 6.4978 c 5.1e-5,0.99582 0.816987,1.81229 1.812809,1.81229 h 12.287105 c 1.165965,0 2.120801,-0.95484 2.120801,-2.1208 v -6.18929 h 1.706872 l 3.095935,3.03289 v 23.46679 h -2.671671 v -12.64419 c 0,-1.07362 -0.879747,-1.95337 -1.953369,-1.95337 H 78.007642 c -1.034483,0 -1.882573,0.84808 -1.882573,1.88257 v 12.71499 h -3.037024 z m 3.04891,0 h 8.708512 v 5.55625 a 0.43254325,0.43254325 0 0 0 0.432015,0.43357 h 3.890719 a 0.43254325,0.43254325 0 0 0 0.433565,-0.43357 v -5.55625 h 1.02526 v 6.18929 c 0,0.69848 -0.557252,1.25574 -1.255737,1.25574 H 77.084184 c -0.528358,0 -0.947202,-0.41887 -0.947229,-0.94723 z m 9.572025,0 h 3.027206 v 5.12475 h -3.025139 z m -7.701338,12.76718 h 13.662215 c 0.606142,0 1.08779,0.48217 1.087789,1.08831 v 12.64419 H 76.990133 v -12.71499 c 0,-0.56701 0.450505,-1.01751 1.017509,-1.01751 z m 1.136881,2.78536 a 0.4325,0.4325 0 0 0 -0.433565,0.4315 0.4325,0.4325 0 0 0 0.433565,0.43357 h 11.382768 a 0.4325,0.4325 0 0 0 0.431498,-0.43357 0.4325,0.4325 0 0 0 -0.431498,-0.4315 z m 0,3.67988 a 0.4325,0.4325 0 0 0 -0.433565,0.43357 0.4325,0.4325 0 0 0 0.433565,0.43149 h 11.382768 a 0.4325,0.4325 0 0 0 0.431498,-0.43149 0.4325,0.4325 0 0 0 -0.431498,-0.43357 z m 0,3.62304 a 0.4325,0.4325 0 0 0 -0.433565,0.43149 0.4325,0.4325 0 0 0 0.433565,0.4315 h 11.382768 a 0.4325,0.4325 0 0 0 0.431498,-0.4315 0.4325,0.4325 0 0 0 -0.431498,-0.43149 z" /></g></svg>
